<svg width="0" height="0" class="hidden">
  <symbol viewBox="0 0 80 70" xmlns="http://www.w3.org/2000/svg" id="antenna1">
<path d="M65.3163 48.3385L46.8468 29.7337L48.8966 19.6373C49.4256 19.8438 49.9879 19.9517 50.5556 19.9558H50.5696C53.1777 19.9866 55.3169 17.8974 55.3479 15.2893C55.3788 12.6812 53.2894 10.542 50.6813 10.5111C48.0732 10.4803 45.934 12.5695 45.9031 15.1776C45.8965 15.7357 45.9888 16.2905 46.176 16.8163L35.326 18.1405L17.6276 0.35C17.4105 0.128479 17.1141 0.00247917 16.804 0C16.4977 0.00160417 16.2044 0.123521 15.9873 0.3395L12.6786 3.6295C12.2232 4.08508 12.2232 4.82358 12.6786 5.27917L14.459 7.08517C7.56162 19.7681 9.80191 35.4741 19.9703 45.7228C20.0636 45.8121 20.1718 45.8843 20.29 45.9363C20.2165 46.3311 20.1781 46.7317 20.1756 47.1333V60.6667H6.17562C2.95562 60.6705 0.346077 63.28 0.342285 66.5V68.8333C0.342285 69.4776 0.86466 70 1.50895 70H55.1756C55.8199 70 56.3423 69.4776 56.3423 68.8333V66.5C56.3385 63.28 53.729 60.6705 50.509 60.6667H36.509V54.6688C38.7021 55.1288 40.9367 55.3633 43.1776 55.3688C48.5548 55.363 53.8464 54.0225 58.5776 51.4675L60.3673 53.2677C60.5844 53.4892 60.8808 53.6152 61.191 53.6177C61.4972 53.6161 61.7905 53.4941 62.0076 53.2782L65.3163 49.9882C65.7717 49.5326 65.7717 48.7941 65.3163 48.3385ZM48.9246 13.6348C49.8383 12.726 51.3157 12.7301 52.2244 13.6437C53.1332 14.5574 53.1291 16.0348 52.2155 16.9435C51.7781 17.3785 51.1864 17.6226 50.5695 17.6225H50.5625C49.2739 17.6158 48.2345 16.5658 48.2412 15.2771C48.2445 14.6602 48.4918 14.0699 48.9291 13.6348H48.9246ZM46.1783 21.301L44.8693 27.7445L42.298 25.158L46.1783 21.301ZM44.853 19.3282L40.653 23.5037L37.4038 20.237L44.853 19.3282ZM50.509 63C52.442 63 54.009 64.567 54.009 66.5V67.6667H2.67562V66.5C2.67562 64.567 4.2426 63 6.17562 63H50.509ZM34.1756 58.3333V60.6667H22.509V58.3333H34.1756ZM22.509 56V47.1333C22.509 44.303 25.1258 42 28.3423 42C31.5588 42 34.1756 44.303 34.1756 47.1333V56H22.509ZM36.509 52.29V47.1333C36.509 43.0162 32.8456 39.6667 28.3423 39.6667C25.4306 39.622 22.7079 41.1041 21.165 43.5738C12.2887 34.2249 10.2899 20.2875 16.1805 8.82073L56.872 49.7455C50.5886 52.9419 43.3857 53.8418 36.509 52.29ZM61.2038 50.7943L59.56 49.1412L16.7923 6.11567L15.1415 4.46133L16.7923 2.81633L34.15 20.272C34.1581 20.272 34.1628 20.2872 34.171 20.293L62.8593 49.1493L61.2038 50.7943Z" fill="#212121" style="fill: var(--icon-black-color, #212121)"></path>
<path d="M28.3527 44.3333H28.3422C26.4091 44.3304 24.8398 45.895 24.8369 47.8281C24.834 49.7611 26.3986 51.3304 28.3317 51.3333H28.3422C30.2752 51.3362 31.8445 49.7716 31.8474 47.8386C31.8503 45.9055 30.2857 44.3362 28.3527 44.3333ZM29.1693 48.6605C28.9497 48.8789 28.6521 49.0011 28.3422 49C27.6979 48.9966 27.1783 48.4716 27.1816 47.8273C27.1832 47.5189 27.3069 47.2237 27.5255 47.0061C27.7426 46.7902 28.0359 46.6682 28.3422 46.6666C28.9865 46.67 29.5061 47.195 29.5027 47.8393C29.5011 48.1477 29.3774 48.4429 29.1588 48.6605H29.1693Z" fill="#2196F3" style="fill: var(--main-color, #2196F3)"></path>
  </symbol>
  <symbol viewBox="0 0 80 70" xmlns="http://www.w3.org/2000/svg" id="astronaut1">
    <path d="M69.9432 9.89639C69.8055 9.47516 69.4416 9.16726 69.0017 9.103L64.8227 8.49514L62.9525 4.70811C62.5606 3.91007 61.2527 3.91007 60.8607 4.70811L58.9905 8.49514L54.8114 9.10314C54.3715 9.16726 54.0076 9.4742 53.8687 9.89653C53.7322 10.3189 53.8453 10.7832 54.1638 11.0924L57.1891 14.0407L56.4751 18.2034C56.4005 18.6409 56.5801 19.0831 56.9383 19.3445C57.3012 19.6082 57.7748 19.6408 58.168 19.4331L61.9061 17.4672L65.6441 19.4331C65.8145 19.5229 66.0024 19.5672 66.1879 19.5672C66.4293 19.5672 66.6709 19.4926 66.874 19.3444C67.2333 19.0831 67.4129 18.6408 67.3372 18.2033L66.6232 14.0405L69.6484 11.0923C69.9653 10.7819 70.0798 10.3187 69.9432 9.89639ZM64.5556 12.7991C64.2815 13.0663 64.1554 13.4536 64.2207 13.8316L64.6384 16.2688L62.4498 15.1184C62.2795 15.0286 62.0928 14.9843 61.9061 14.9843C61.7194 14.9843 61.5339 15.0286 61.3623 15.1184L59.1736 16.2688L59.5912 13.8316C59.6566 13.4536 59.5305 13.0675 59.2564 12.7991L57.4842 11.0725L59.932 10.7166C60.3123 10.6618 60.6402 10.4226 60.8105 10.0784L61.9048 7.86171L62.9991 10.0784C63.1695 10.4225 63.4974 10.6618 63.8777 10.7166L66.3254 11.0725L64.5556 12.7991Z" fill="#2196F3" style="fill: var(--main-color, #2196F3)"></path>
    <path d="M57.1669 44.8923H54.8335V47.2257H57.1669V44.8923Z" fill="#2196F3" style="fill: var(--main-color, #2196F3)"></path>
    <path d="M57.1669 49.5591H54.8335V51.8925H57.1669V49.5591Z" fill="#2196F3" style="fill: var(--main-color, #2196F3)"></path>
    <path d="M59.5004 47.2257H57.167V49.5591H59.5004V47.2257Z" fill="#2196F3" style="fill: var(--main-color, #2196F3)"></path>
    <path d="M54.8337 47.2257H52.5002V49.5591H54.8337V47.2257Z" fill="#2196F3" style="fill: var(--main-color, #2196F3)"></path>
    <path d="M49.0001 57.7259H46.6667V60.0593H49.0001V57.7259Z" fill="#2196F3" style="fill: var(--main-color, #2196F3)"></path>
    <path d="M49.0001 62.3926H46.6667V64.726H49.0001V62.3926Z" fill="#2196F3" style="fill: var(--main-color, #2196F3)"></path>
    <path d="M51.3337 60.0593H49.0002V62.3927H51.3337V60.0593Z" fill="#2196F3" style="fill: var(--main-color, #2196F3)"></path>
    <path d="M46.6669 60.0593H44.3335V62.3927H46.6669V60.0593Z" fill="#2196F3" style="fill: var(--main-color, #2196F3)"></path>
    <path d="M34.9999 53.0592H32.6665V55.3926H34.9999V53.0592Z" fill="#2196F3" style="fill: var(--main-color, #2196F3)"></path>
    <path d="M34.9999 57.7259H32.6665V60.0593H34.9999V57.7259Z" fill="#2196F3" style="fill: var(--main-color, #2196F3)"></path>
    <path d="M37.3334 55.3925H35V57.7259H37.3334V55.3925Z" fill="#2196F3" style="fill: var(--main-color, #2196F3)"></path>
    <path d="M32.6667 55.3925H30.3333V57.7259H32.6667V55.3925Z" fill="#2196F3" style="fill: var(--main-color, #2196F3)"></path>
    <path d="M12.8329 13.3918H10.4995V15.7252H12.8329V13.3918Z" fill="#2196F3" style="fill: var(--main-color, #2196F3)"></path>
    <path d="M12.8329 18.0587H10.4995V20.3921H12.8329V18.0587Z" fill="#2196F3" style="fill: var(--main-color, #2196F3)"></path>
    <path d="M15.1664 15.7252H12.833V18.0587H15.1664V15.7252Z" fill="#2196F3" style="fill: var(--main-color, #2196F3)"></path>
    <path d="M10.4997 15.7252H8.16626V18.0587H10.4997V15.7252Z" fill="#2196F3" style="fill: var(--main-color, #2196F3)"></path>
    <path d="M54.0635 30.9738C53.4347 30.1256 52.5119 29.5797 51.4642 29.4326C50.4118 29.2833 49.3734 29.5597 48.5334 30.2026L45.7952 32.3014L45.794 32.3026L41.6428 35.4025L38.6724 34.2195C43.9691 31.843 47.6711 26.545 47.6711 20.3942C47.6711 12.0314 40.8401 5.22739 32.4436 5.22739C24.047 5.22739 17.2161 12.0314 17.2161 20.3942C17.2161 23.4253 18.1226 26.244 19.6662 28.6158L13.6204 28.5633C13.6168 28.5633 13.6134 28.5633 13.6099 28.5633C13.5911 28.5633 13.5761 28.5726 13.5586 28.5738C13.4431 28.5785 13.3298 28.6019 13.2191 28.6415C13.1911 28.652 13.162 28.6579 13.1352 28.6706C13.1212 28.6765 13.1071 28.6776 13.0932 28.6846L6.02075 32.1764C6.01952 32.1764 6.01843 32.1764 6.01843 32.1775L1.8766 34.1693C1.83107 34.1891 1.78445 34.2159 1.73892 34.2463C0.0880191 35.3452 -0.474314 37.5036 0.429958 39.2676C0.911763 40.2056 1.73195 40.8964 2.73999 41.2125C3.12856 41.3337 3.52518 41.3933 3.91949 41.3933C4.55305 41.3933 5.18074 41.2382 5.75578 40.9314L8.79154 39.3167L13.7441 36.7593L16.7122 36.7418L4.80844 48.5884C4.80735 48.5896 4.80612 48.5896 4.80489 48.5907L1.87647 51.5074C1.18466 52.1958 0.8043 53.1092 0.8043 54.0835C0.8043 55.0565 1.18466 55.9723 1.87647 56.6619C2.587 57.3689 3.52149 57.7236 4.45598 57.7236C5.3917 57.7236 6.32495 57.3689 7.03782 56.6619L9.91251 53.7988L13.7206 50.9556L15.6912 52.9179L11.8375 56.7552C11.8364 56.7564 11.8352 56.7564 11.834 56.7575L8.90556 59.6741C8.21375 60.3625 7.8334 61.276 7.8334 62.2502C7.8334 63.2233 8.21375 64.139 8.90556 64.8287C9.6161 65.5356 10.5518 65.8903 11.4863 65.8903C12.4208 65.8903 13.3565 65.5356 14.0681 64.8287L16.9977 61.912L21.6842 57.2453C21.6854 57.2441 21.6854 57.243 21.6865 57.2417L23.8951 55.0542L23.8869 55.046C23.9008 55.0321 23.9207 55.0273 23.9347 55.0122L35.2353 42.6349L42.8281 43.7153C42.8829 43.7235 42.9377 43.7269 42.9925 43.7269C43.1338 43.7269 43.2702 43.6931 43.402 43.6429C43.4406 43.629 43.4743 43.6103 43.5106 43.5917C43.5526 43.5706 43.5968 43.559 43.6366 43.5322L50.6659 38.8655C50.6916 38.848 50.7055 38.82 50.73 38.8014C50.758 38.7792 50.793 38.7699 50.8186 38.7453L53.5999 36.1401C55.0471 34.7841 55.2466 32.5628 54.0635 30.9738ZM4.66024 38.8722C4.28111 39.0752 3.85058 39.116 3.43878 38.9854C3.03039 38.8583 2.69912 38.5793 2.50538 38.2025C2.15305 37.5165 2.35718 36.6811 2.97433 36.2297L5.84793 34.8471L6.53974 36.869L6.83027 37.7183L4.66024 38.8722ZM12.3102 34.8741L8.92333 36.6241L8.36456 34.9907L7.96328 33.817L12.3967 31.6282L12.3102 34.8741ZM45.3402 20.3919C45.3402 22.4009 44.8607 24.2957 44.03 25.9908L34.8832 21.8362C34.7875 20.5821 34.1366 19.4842 33.1589 18.8005L36.3614 8.16853C41.5626 9.82298 45.3402 14.6752 45.3402 20.3919ZM19.5519 20.3919C19.5519 13.3159 25.3363 7.55834 32.446 7.55834C32.9991 7.55834 33.5403 7.60496 34.0759 7.67264L30.9433 18.0714C30.9014 18.0701 30.8617 18.0585 30.8185 18.0585C28.5597 18.0585 26.7222 19.8902 26.7222 22.1419C26.7222 24.3936 28.5597 26.2254 30.8185 26.2254C32.3375 26.2254 33.65 25.3866 34.3582 24.1591L42.8073 27.9976C40.4564 31.1616 36.6938 33.2255 32.4459 33.2255C25.3363 33.2255 19.5519 27.4679 19.5519 20.3919ZM32.5814 22.1419C32.5814 23.1068 31.7903 23.892 30.8185 23.892C29.8467 23.892 29.0556 23.1068 29.0556 22.1419C29.0556 21.1771 29.8467 20.3919 30.8185 20.3919C31.7903 20.3919 32.5814 21.1771 32.5814 22.1419ZM5.39183 55.0075C4.87503 55.5196 4.03843 55.5185 3.52286 55.0087C3.2743 54.7601 3.13785 54.4324 3.13785 54.0835C3.13785 53.7358 3.2743 53.408 3.52286 53.1619L5.6274 51.0652L7.48941 52.9192L5.39183 55.0075ZM12.4222 63.1743C11.9054 63.6865 11.0677 63.6877 10.552 63.1756C10.3034 62.927 10.1669 62.5993 10.1669 62.2504C10.1669 61.9027 10.3034 61.5748 10.552 61.3287L12.6579 59.231L13.5388 60.1073L14.5211 61.085L12.4222 63.1743ZM20.0383 55.5862C20.0371 55.5873 20.036 55.5873 20.0348 55.5885L16.1742 59.4386L15.2933 58.5623L14.311 57.5846L18.168 53.7451C18.168 53.7451 18.168 53.7451 18.168 53.744C18.1692 53.7428 18.1703 53.7428 18.1715 53.7417C18.259 53.6542 18.3139 53.5492 18.3676 53.4454C18.3828 53.4151 18.4119 53.3894 18.4248 53.3579C18.461 53.2681 18.4667 53.1713 18.4808 53.0767C18.4878 53.0229 18.5112 52.9729 18.5112 52.9179C18.5112 52.8397 18.4831 52.764 18.4669 52.6869C18.4529 52.6169 18.4529 52.5457 18.426 52.4781C18.3817 52.3685 18.3058 52.2717 18.2265 52.1771C18.2044 52.1514 18.1962 52.1187 18.1717 52.0942C18.1717 52.0942 18.1717 52.0942 18.1705 52.0942C18.1692 52.0931 18.1692 52.0906 18.1681 52.0896L14.6529 48.5895C14.6156 48.5522 14.5677 48.537 14.5257 48.5056C14.464 48.4577 14.4045 48.4134 14.3356 48.3795C14.2691 48.3468 14.2014 48.327 14.1314 48.3083C14.0568 48.2872 13.9845 48.2709 13.9063 48.2651C13.835 48.2604 13.7686 48.2674 13.6975 48.2756C13.6193 48.2849 13.5459 48.2954 13.47 48.3199C13.3964 48.3433 13.3312 48.3794 13.2635 48.4179C13.2203 48.4424 13.1714 48.4506 13.1305 48.4809L9.25133 51.3767L7.28077 49.4143L12.5285 44.1946L22.0674 53.576L20.0383 55.5862ZM34.9544 40.2372C34.9207 40.2326 34.8891 40.2454 34.8553 40.2431C34.7701 40.2385 34.6885 40.2443 34.6034 40.2583C34.5369 40.2699 34.4739 40.2828 34.4108 40.3049C34.3362 40.3306 34.2685 40.3656 34.1996 40.4076C34.1343 40.4472 34.0748 40.4892 34.0176 40.5417C33.9896 40.5662 33.9558 40.5779 33.9301 40.6058L23.6527 51.8621L14.185 42.5507L20.3825 36.3859C20.8387 35.9309 20.841 35.1924 20.386 34.735C20.1562 34.5052 19.854 34.392 19.5519 34.3932V34.3921L14.6984 34.4213L14.7591 30.9049L21.5492 30.9633C24.3166 33.7937 28.176 35.5589 32.446 35.5589C33.4027 35.5589 34.3361 35.4598 35.2448 35.2905C35.3323 35.3605 35.4186 35.4318 35.5284 35.4761L40.7995 37.5761L41.1331 39.2351L41.5228 41.1717L34.9544 40.2372ZM43.7944 40.6269L43.1096 37.219L46.2736 34.8564L47.102 35.9554L48.3445 37.6051L43.7944 40.6269ZM52.0055 34.4341L50.1726 36.1515L48.1356 33.4471L49.9544 32.053C50.2938 31.7917 50.7221 31.6855 51.1421 31.7403C51.5644 31.7998 51.9378 32.0203 52.1921 32.3621C52.6658 33.0003 52.5853 33.8905 52.0055 34.4341Z" fill="#212121" style="fill: var(--icon-black-color, #212121)"></path>
    <path d="M29.7547 40.5651L25.0669 35.8984C24.6131 35.4446 23.8757 35.4446 23.4207 35.8984L18.7341 40.5651C18.5148 40.7856 18.3911 41.0819 18.3911 41.3922C18.3911 41.7026 18.5136 42.0001 18.7341 42.2194L23.4207 46.8861C23.6482 47.1124 23.9469 47.2256 24.2444 47.2256C24.5419 47.2256 24.8405 47.1124 25.0669 46.8861L29.7547 42.2194C29.974 42.0001 30.0988 41.7026 30.0988 41.3922C30.0988 41.0819 29.9751 40.7844 29.7547 40.5651ZM24.2444 44.4128L21.211 41.3922L24.2444 38.3717L27.2789 41.3922L24.2444 44.4128Z" fill="#212121" style="fill: var(--icon-black-color, #212121)"></path>
    <path d="M37.5467 11.0923L36.9832 13.358C37.1383 13.3966 40.7843 14.3463 40.7843 18.0586H43.1177C43.1175 13.6461 39.4741 11.5718 37.5467 11.0923Z" fill="#212121" style="fill: var(--icon-black-color, #212121)"></path>
    <path d="M43.1178 20.3919H40.7844V22.7253H43.1178V20.3919Z" fill="#212121" style="fill: var(--icon-black-color, #212121)"></path>
  </symbol>
  <symbol viewBox="0 0 170 90" xmlns="http://www.w3.org/2000/svg" id="Client1">
    <path d="M69 20l7.308 6.918h20.384v19.298L104 53.134V20H69z" ></path>
    <path d="M63 26.627v32.187h34V46.02L76.523 26.634 63 26.626zm27.523 27.479H68.38V32.457h1.565V52.64h20.578v1.465zM72.791 64.784l.818-1.685h.684L73.1 65.345v1.309h-.62v-1.309L71.287 63.1h.686l.818 1.685zm3.51 1.042h-1.376l-.288.828h-.642l1.342-3.555h.555l1.345 3.555h-.645l-.29-.828zm-1.203-.498h1.03l-.515-1.475-.515 1.475zm3.638.366c0-.164.045-.315.134-.451.09-.139.266-.302.53-.491a2.265 2.265 0 0 1-.29-.444.877.877 0 0 1-.081-.354c0-.279.084-.498.254-.66.169-.162.397-.244.683-.244.26 0 .47.077.635.23.166.151.25.34.25.564a.785.785 0 0 1-.113.41 1.34 1.34 0 0 1-.369.371l-.242.176.687.81c.099-.195.148-.412.148-.651h.516c0 .437-.103.796-.308 1.076l.522.618h-.688l-.2-.237a1.47 1.47 0 0 1-.909.286c-.351 0-.633-.093-.844-.279a.932.932 0 0 1-.315-.73zm1.177.535c.2 0 .387-.067.561-.2l-.776-.916-.076.054c-.195.148-.293.317-.293.508 0 .164.053.298.159.4a.585.585 0 0 0 .425.154zm-.328-2.29c0 .137.084.308.252.515l.27-.185.077-.062a.44.44 0 0 0 .151-.344.311.311 0 0 0-.105-.236.37.37 0 0 0-.266-.1.348.348 0 0 0-.276.117.432.432 0 0 0-.103.295zm6.458 1.558c-.036.379-.176.675-.42.888-.244.212-.569.318-.974.318-.283 0-.533-.067-.75-.2a1.332 1.332 0 0 1-.498-.574 2.065 2.065 0 0 1-.183-.862v-.332c0-.335.06-.63.178-.886.12-.256.29-.453.51-.591a1.43 1.43 0 0 1 .772-.208c.392 0 .708.107.948.32.239.213.378.514.417.903h-.615c-.03-.255-.104-.439-.225-.551-.119-.114-.294-.171-.525-.171-.268 0-.475.098-.62.295-.143.196-.216.483-.22.862v.315c0 .384.069.677.206.879.138.202.34.303.605.303.242 0 .425-.055.547-.164.122-.109.2-.29.232-.544h.615zm3.391-.528c0 .349-.06.655-.18.918a1.384 1.384 0 0 1-.518.606c-.223.14-.48.21-.772.21-.288 0-.545-.07-.771-.21a1.405 1.405 0 0 1-.523-.603 2.124 2.124 0 0 1-.185-.901v-.2c0-.347.06-.653.183-.918.124-.266.297-.468.52-.608.225-.142.482-.213.772-.213.29 0 .546.07.769.21.224.139.397.339.52.6.122.261.184.565.185.912v.197zm-.618-.185c0-.394-.075-.696-.224-.906a.728.728 0 0 0-.632-.315.731.731 0 0 0-.628.315c-.15.208-.226.504-.23.886v.205c0 .39.076.693.228.906.153.213.364.32.634.32.274 0 .484-.104.63-.313.148-.208.222-.512.222-.913v-.185z"
      ></path>
  </symbol>
  <symbol viewBox="0 0 170 90" xmlns="http://www.w3.org/2000/svg" id="Client2">
    <path d="M81.977 21.934h.136c.254 0 .527.026.797.049a22.64 22.64 0 0 1 3.542.534v-2.863a21.125 21.125 0 0 0-3.656-.583A29.224 29.224 0 0 0 81.32 19h-.427c-2.475.01-4.94.327-7.337.946-2.73.68-5.35 1.747-7.784 3.166v28.397a31.633 31.633 0 0 1 7.42-2.892 32.36 32.36 0 0 1 6.228-.956h.084a23.25 23.25 0 0 1 1.065-.03v-2.91a34.329 34.329 0 0 0-8.095 1.076c-.98.255-1.925.53-2.813.834l-1.012.344V24.833l.432-.208a28.276 28.276 0 0 1 10.516-2.683.63.63 0 0 1 .091 0c.403-.02.808-.03 1.205-.03h.455c.21.005.42.01.63.023z"
      ></path>
    <path d="M89.11 24.933a25.923 25.923 0 0 1-4.234-.344c-.45-.076-.893-.167-1.323-.267v28.072c1.82.45 3.69.67 5.565.656a29.943 29.943 0 0 0 7.337-.944 29.809 29.809 0 0 0 7.786-3.166V21.05a31.767 31.767 0 0 1-7.417 2.893c-2.52.648-5.111.98-7.713.99zm11.225.485l1.012-.34v22.148l-.433.209a27.746 27.746 0 0 1-5.173 1.859c-2.163.56-4.387.847-6.62.857-.668 0-1.33-.028-1.973-.084l-.693-.061V27.228l.807.054a28.38 28.38 0 0 0 1.854.056 34.258 34.258 0 0 0 8.406-1.078 44.86 44.86 0 0 0 2.813-.842zM67.737 61.212a1.492 1.492 0 0 0-1.125-.455 1.672 1.672 0 0 0-.65.122 1.464 1.464 0 0 0-.832.842c-.08.2-.12.413-.117.628v3.794c-.01.267.042.533.149.778.09.195.219.368.38.509.151.127.33.22.52.27.185.051.376.078.567.078.212.002.42-.043.612-.132a1.599 1.599 0 0 0 .96-1.465v-.424h-.992v.338a.881.881 0 0 1-.059.338.609.609 0 0 1-.144.214.697.697 0 0 1-.415.145.503.503 0 0 1-.465-.204.898.898 0 0 1-.132-.508v-3.538c-.006-.196.036-.39.122-.567a.507.507 0 0 1 .485-.229.527.527 0 0 1 .443.214.806.806 0 0 1 .165.509v.328h.981v-.387a1.786 1.786 0 0 0-.121-.664 1.562 1.562 0 0 0-.332-.534zm5.892-.042a1.765 1.765 0 0 0-1.128-.418c-.202 0-.403.037-.592.107A1.56 1.56 0 0 0 71 61.7c-.1.231-.15.482-.145.735v3.638c-.006.256.043.51.145.746.09.195.22.369.384.508.152.14.33.25.524.32.19.07.39.106.592.107a1.714 1.714 0 0 0 1.128-.427c.158-.142.285-.315.374-.508.102-.235.151-.49.144-.746v-3.639a1.77 1.77 0 0 0-.144-.734 1.641 1.641 0 0 0-.374-.532zm-.463 4.904a.656.656 0 0 1-.197.527.727.727 0 0 1-.934 0 .65.65 0 0 1-.197-.527v-3.639a.653.653 0 0 1 .197-.526.726.726 0 0 1 .934 0 .652.652 0 0 1 .197.526v3.64zm8.201 1.626v-6.89h-.953l-1.253 3.647h-.017l-1.263-3.646h-.943v6.888h.984v-4.19h.017l.964 2.962h.491l.971-2.962h.018v4.19h.984zm5.591-6.406a1.37 1.37 0 0 0-.557-.377 2.184 2.184 0 0 0-.713-.107h-1.462v6.89h.981v-2.691h.506a1.8 1.8 0 0 0 .886-.188 1.43 1.43 0 0 0 .538-.527c.114-.183.19-.387.226-.6a4.9 4.9 0 0 0 .053-.783c.01-.33-.023-.662-.096-.984a1.466 1.466 0 0 0-.362-.633zm-.506 2.1a.868.868 0 0 1-.091.359.552.552 0 0 1-.253.241 1.006 1.006 0 0 1-.463.087h-.448v-2.342h.506a.942.942 0 0 1 .443.086.556.556 0 0 1 .23.254 1 1 0 0 1 .086.384v.458c0 .16.01.326 0 .473h-.01zm5.156-2.584h-.805l-1.518 6.89h.982l.288-1.48h1.338l.289 1.48h.981l-1.555-6.89zm-.906 4.471l.483-2.497h.018l.48 2.497h-.981zm7.248-.321h-.018l-1.483-4.15h-.943v6.89h.981v-4.143h.02l1.5 4.142h.924v-6.888h-.981v4.15zm5.998-4.15l-.79 2.74h-.02l-.789-2.74h-1.04l1.348 3.978v2.911h.982v-2.911l1.348-3.977h-1.039zM65 69.644h.473v1.328h.321v-1.328h.47v-.272H65v.272zm3.977-.272l-.62 1.6h.341l.132-.364h.638l.136.364h.35l-.636-1.6h-.341zm-.05.967l.217-.593.217.593h-.435zm3.981.043h.37v.206a.613.613 0 0 1-.38.135.404.404 0 0 1-.34-.153.67.67 0 0 1-.118-.417c0-.356.154-.534.46-.534a.337.337 0 0 1 .362.255l.316-.061c-.068-.313-.293-.47-.678-.47a.804.804 0 0 0-.559.205.78.78 0 0 0-.23.615.872.872 0 0 0 .205.6.776.776 0 0 0 .607.234.96.96 0 0 0 .678-.254v-.63h-.693v.27zm4.015-1.01h-.324v1.6h1.12V70.7h-.796v-1.328zm3.394 0h-.323v1.6h.323v-1.6zm3.319 1.068l-.655-1.068h-.313v1.6h.3v-1.045l.643 1.045h.321v-1.6h-.296v1.069zm3.001-.173h.797v-.272h-.797v-.35h.857v-.273h-1.181v1.6h1.214V70.7h-.89v-.433zm7.275-.264h-.63v-.63h-.321v1.599h.321v-.7h.63v.7h.321v-1.6h-.32v.631zm3.018.264h.8v-.272h-.8v-.35h.86v-.273h-1.18v1.6h1.212V70.7h-.89v-.433zm4.093.001c.279-.044.42-.191.42-.445a.38.38 0 0 0-.157-.356.903.903 0 0 0-.468-.094h-.678v1.599h.322v-.669h.063a.433.433 0 0 1 .2.036.336.336 0 0 1 .114.117l.349.508h.384l-.195-.312a1.11 1.11 0 0 0-.354-.384zm-.324-.222h-.237v-.401h.253a.838.838 0 0 1 .326.038.212.212 0 0 1 .046.255.213.213 0 0 1-.061.07.915.915 0 0 1-.327.038zm3.41.221h.797v-.272h-.797v-.35h.861v-.273h-1.184v1.6H105V70.7h-.891v-.433z"
      ></path>
  </symbol>
  <symbol viewBox="0 0 170 90" xmlns="http://www.w3.org/2000/svg" id="Client3">
    <path d="M71.345 65.795a.118.118 0 0 1 .08.034l.206.216c-.16.174-.357.314-.579.409a2.07 2.07 0 0 1-.82.147 2.011 2.011 0 0 1-.772-.137 1.673 1.673 0 0 1-.957-.986 2.163 2.163 0 0 1-.131-.767 2.018 2.018 0 0 1 .141-.77c.09-.222.226-.425.4-.597.175-.17.385-.302.617-.39.253-.094.523-.14.794-.137.253-.006.504.036.739.125.203.084.39.2.552.345l-.172.23a.175.175 0 0 1-.044.042.11.11 0 0 1-.069.018.157.157 0 0 1-.075-.025l-.092-.061-.129-.079a1.401 1.401 0 0 0-.406-.137 1.644 1.644 0 0 0-.306-.024 1.532 1.532 0 0 0-.571.102 1.29 1.29 0 0 0-.448.29c-.128.133-.227.29-.29.46a1.668 1.668 0 0 0-.106.608c-.003.21.033.42.106.618.062.169.16.325.285.458.118.125.264.222.427.284.168.067.348.1.53.099.105.001.21-.005.314-.02.17-.02.332-.076.475-.164a1.57 1.57 0 0 0 .204-.152.153.153 0 0 1 .097-.04zm5.942-1.085c.003.26-.044.52-.139.763a1.655 1.655 0 0 1-.387.592 1.754 1.754 0 0 1-.608.388 2.296 2.296 0 0 1-1.564 0 1.778 1.778 0 0 1-.605-.39 1.74 1.74 0 0 1-.39-.597 2.166 2.166 0 0 1 0-1.527 1.78 1.78 0 0 1 .39-.6 1.78 1.78 0 0 1 .605-.375 2.258 2.258 0 0 1 1.564 0c.228.088.435.22.607.39.17.17.301.37.388.59.096.245.143.505.14.767zm-.54 0a1.759 1.759 0 0 0-.098-.612 1.208 1.208 0 0 0-.71-.747 1.658 1.658 0 0 0-1.137 0 1.207 1.207 0 0 0-.712.747c-.13.4-.13.827 0 1.225a1.203 1.203 0 0 0 .712.745c.367.131.77.131 1.137 0 .166-.063.314-.161.435-.286.123-.134.217-.29.275-.459.07-.197.102-.404.098-.612zm4.593.643l.055.137a2.56 2.56 0 0 1 .059-.137 1.32 1.32 0 0 1 .067-.135l1.314-2.276c.026-.04.049-.064.075-.071a.322.322 0 0 1 .108-.012h.388v3.702h-.46v-2.836a1.085 1.085 0 0 1 0-.128l-1.322 2.309a.202.202 0 0 1-.078.084.216.216 0 0 1-.113.03h-.074a.21.21 0 0 1-.113-.03.2.2 0 0 1-.078-.084l-1.36-2.324v2.973h-.445V62.86h.388a.322.322 0 0 1 .108.012.15.15 0 0 1 .072.071l1.343 2.279a.805.805 0 0 1 .067.132zm4.947-.183v1.386h-.514V62.86h1.147c.216-.004.432.023.64.08.167.045.321.124.453.23.114.1.202.225.257.363.061.151.09.312.088.473.002.163-.03.323-.096.473a1.01 1.01 0 0 1-.277.37 1.27 1.27 0 0 1-.456.245c-.2.061-.41.09-.62.086l-.622-.01zm0-.398h.623c.135.002.27-.017.398-.056a.843.843 0 0 0 .288-.16.652.652 0 0 0 .175-.244.768.768 0 0 0 .062-.312.677.677 0 0 0-.052-.3.708.708 0 0 0-.18-.253 1.033 1.033 0 0 0-.691-.199h-.623v1.524zm6.914 1.789h-.406a.181.181 0 0 1-.114-.034.226.226 0 0 1-.066-.086l-.35-.894h-1.757l-.363.894a.2.2 0 0 1-.064.083.181.181 0 0 1-.116.037h-.406l1.543-3.703h.535l1.564 3.703zm-2.546-1.375h1.45l-.612-1.507a2.6 2.6 0 0 1-.116-.348l-.059.194a1.84 1.84 0 0 1-.056.157l-.607 1.504zm4.768-2.311c.031.017.058.04.078.067l2.25 2.79v-2.874h.46v3.703h-.257a.23.23 0 0 1-.105-.022.283.283 0 0 1-.082-.069l-2.248-2.788c.002.042.002.085 0 .127v2.753h-.46v-3.704h.272c.032 0 .063.005.092.017zm6.58 2.213v1.47h-.515v-1.47l-1.422-2.23h.46a.174.174 0 0 1 .111.032.315.315 0 0 1 .069.084l.89 1.438c.036.061.067.118.093.172.026.053.046.105.064.156l.067-.159c.025-.058.054-.115.088-.169l.877-1.448a.362.362 0 0 1 .067-.079.16.16 0 0 1 .11-.036h.466l-1.425 2.24zm-20.917-8.444c.224.027.45.05.68.069 3.47-1.48 6.406-3.9 8.44-6.96a17.782 17.782 0 0 0 2.998-10.246l-3.825-3.644a20.22 20.22 0 0 1-1.05 11.512c-1.465 3.67-3.973 6.88-7.243 9.27z"
      ></path>
    <path d="M79.72 56.475l.103.02c3.495-2.382 6.159-5.707 7.648-9.546a19.54 19.54 0 0 0 .707-11.99l-5.448-5.19a24.083 24.083 0 0 1 2.558 13.768c-.533 4.728-2.464 9.214-5.567 12.938zm18.476-12.689c-.925 3.98-3.173 7.568-6.41 10.234a20.218 20.218 0 0 1-3.045 2.082 18.188 18.188 0 0 0 7.08-3.813 17.09 17.09 0 0 0 4.585-6.4l-2.21-2.103z"
      ></path>
    <path d="M97.33 43.2l-3.147-2.997a18.475 18.475 0 0 1-2.952 9.67c-1.873 2.916-4.532 5.299-7.699 6.903h.016c.705 0 1.41-.04 2.111-.12a19.338 19.338 0 0 0 7.611-5.33 18.093 18.093 0 0 0 4.06-8.126zM80.176 27.58L76.423 24c-3.355 1.235-6.24 3.406-8.278 6.23-2.038 2.823-3.135 6.167-3.145 9.593.013 3.787 1.35 7.46 3.801 10.441 2.451 2.98 5.875 5.097 9.731 6.015 3.442-3.995 5.457-8.932 5.753-14.093.295-5.161-1.144-10.277-4.11-14.606zM106 42.649c-.014-4.492-1.893-8.797-5.227-11.973-3.334-3.177-7.852-4.967-12.567-4.98a18.379 18.379 0 0 0-6.371 1.13l22.977 21.89A16.093 16.093 0 0 0 106 42.65z"
      ></path>
  </symbol>
  <symbol viewBox="0 0 170 90" xmlns="http://www.w3.org/2000/svg" id="Client4">
    <path d="M57.402 36.83H57.4c-2.263 0-4.097 1.788-4.097 3.992v.003c0 2.204 1.834 3.992 4.097 3.992h.002c2.262 0 4.096-1.788 4.096-3.992v-.003c0-2.204-1.834-3.991-4.096-3.991zm30.235-1.276c-.007-3.062-1.258-5.997-3.48-8.162-2.22-2.165-5.232-3.385-8.374-3.392-3.143.006-6.156 1.225-8.379 3.39-2.223 2.166-3.474 5.102-3.48 8.164V52.44s23.71-2.573 23.713-16.883v-.003zM45 57.982a7.96 7.96 0 0 0 2.422 5.68 8.384 8.384 0 0 0 5.827 2.362 8.384 8.384 0 0 0 5.826-2.361 7.96 7.96 0 0 0 2.423-5.678v-11.75S45 48.029 45 57.983zm8.25 2.105a2.2 2.2 0 0 1-1.2-.354 2.117 2.117 0 0 1-.796-.945 2.056 2.056 0 0 1-.123-1.216 2.09 2.09 0 0 1 .59-1.078 2.179 2.179 0 0 1 1.107-.576 2.2 2.2 0 0 1 1.248.12c.395.159.732.429.97.775a2.068 2.068 0 0 1 .201 1.977 2.1 2.1 0 0 1-.467.686c-.201.196-.44.352-.702.458a2.21 2.21 0 0 1-.829.161v-.008zm16.84-1.306h-1.688v1.743h-.88V56.26H70.3v.712h-1.898v1.101h1.687v.71zm4.224-.293c0 .42-.074.788-.223 1.105-.148.316-.361.56-.638.732a1.755 1.755 0 0 1-.95.258c-.353 0-.668-.085-.946-.255a1.695 1.695 0 0 1-.644-.726 2.511 2.511 0 0 1-.232-1.09V58.3c0-.42.075-.79.226-1.108.152-.32.366-.565.641-.735.278-.172.594-.258.95-.258.355 0 .67.086.946.258.277.17.491.415.641.735.153.319.229.687.229 1.105v.19zm-.89-.193c0-.447-.08-.787-.24-1.02a.783.783 0 0 0-.686-.348.782.782 0 0 0-.683.346c-.16.228-.241.564-.243 1.007v.208c0 .436.08.774.24 1.014.16.24.39.36.691.36a.775.775 0 0 0 .68-.345c.158-.233.238-.57.24-1.014v-.208zm3.74 1.11a.447.447 0 0 0-.175-.38c-.117-.09-.328-.184-.633-.282a4.565 4.565 0 0 1-.724-.293c-.484-.262-.726-.614-.726-1.057 0-.23.064-.436.193-.616.131-.181.317-.323.56-.425.244-.101.517-.152.82-.152.305 0 .576.056.814.167.239.11.423.265.554.466.133.201.2.43.2.686h-.88c0-.196-.061-.347-.184-.454-.123-.11-.296-.165-.519-.165-.215 0-.382.046-.5.138a.426.426 0 0 0-.18.358c0 .138.07.254.209.348.14.094.346.182.618.264.5.15.864.337 1.093.56.228.222.342.5.342.831 0 .37-.14.66-.419.87-.279.21-.655.314-1.127.314-.329 0-.627-.06-.897-.179a1.438 1.438 0 0 1-.618-.495 1.27 1.27 0 0 1-.211-.726h.882c0 .47.281.706.843.706.21 0 .373-.042.49-.126a.418.418 0 0 0 .176-.358zm4.691-2.434h-1.307v3.553h-.879v-3.553H78.38v-.712h3.475v.712zm3.07 1.705h-1.687v1.142h1.98v.706h-2.86V56.26h2.854v.712h-1.974v1.016h1.687v.689zm2.388.287h-.7v1.561h-.88V56.26h1.586c.504 0 .892.112 1.166.337.273.224.41.542.41.952 0 .29-.063.534-.19.73a1.282 1.282 0 0 1-.572.462l.923 1.743v.041h-.943l-.8-1.561zm-.7-.712h.709c.22 0 .391-.056.513-.167a.607.607 0 0 0 .181-.466c0-.201-.058-.36-.173-.474-.113-.116-.288-.173-.524-.173h-.706v1.28zm5.326.77v1.503h-.879V56.26h1.664c.32 0 .602.058.844.176.244.117.431.284.562.5.131.215.197.46.197.736 0 .418-.144.748-.431.99-.285.24-.68.36-1.186.36h-.771zm0-.711h.785c.233 0 .41-.055.53-.165.123-.109.185-.265.185-.468a.704.704 0 0 0-.185-.507c-.123-.129-.293-.195-.51-.2h-.805v1.34zm5.56.366h-1.687v1.142h1.98v.706h-2.859V56.26h2.854v.712h-1.975v1.016H97.5v.689zm4.079-1.705h-1.307v3.553h-.879v-3.553h-1.289v-.712h3.475v.712zm3.07 1.705h-1.688v1.142h1.981v.706h-2.859V56.26h2.853v.712h-1.975v1.016h1.688v.689zm2.388.287h-.701v1.561h-.878V56.26h1.585c.503 0 .892.112 1.166.337.273.224.41.542.41.952 0 .29-.064.534-.191.73a1.28 1.28 0 0 1-.571.462l.923 1.743v.041h-.944l-.799-1.561zm-.701-.712h.709c.221 0 .392-.056.513-.167a.607.607 0 0 0 .182-.466c0-.201-.058-.36-.173-.474-.113-.116-.288-.173-.524-.173h-.707v1.28zm5.165 1.154a.447.447 0 0 0-.175-.38c-.117-.09-.328-.184-.633-.282a4.566 4.566 0 0 1-.724-.293c-.484-.262-.726-.614-.726-1.057 0-.23.064-.436.193-.616.131-.181.317-.323.56-.425.244-.101.517-.152.82-.152a1.9 1.9 0 0 1 .814.167c.239.11.423.265.554.466.133.201.199.43.199.686h-.879c0-.196-.061-.347-.184-.454-.123-.11-.296-.165-.519-.165-.215 0-.382.046-.501.138a.425.425 0 0 0-.178.358c0 .138.069.254.208.348.14.094.346.182.618.264.5.15.864.337 1.093.56.228.222.342.5.342.831 0 .37-.139.66-.419.87-.279.21-.655.314-1.128.314a2.19 2.19 0 0 1-.896-.179 1.432 1.432 0 0 1-.618-.495 1.268 1.268 0 0 1-.211-.726h.882c0 .47.281.706.843.706.209 0 .373-.042.49-.126a.418.418 0 0 0 .175-.358z"
      ></path>
  </symbol>
  <symbol viewBox="0 0 170 90" xmlns="http://www.w3.org/2000/svg" id="Client5">
    <path d="M60.488 61.278c.23.285.352.643.346 1.01a1.604 1.604 0 0 1-.537 1.277c-.446.339-1 .504-1.558.466H56v-6.405h2.683a2.284 2.284 0 0 1 1.487.426 1.463 1.463 0 0 1 .52 1.198c.016.353-.095.7-.311.98a1.46 1.46 0 0 1-.817.5c.364.067.692.26.926.548zm-3.213-.967h1.147c.26.02.519-.056.729-.213a.761.761 0 0 0 .246-.626.787.787 0 0 0-.243-.625 1.106 1.106 0 0 0-.751-.216h-1.128v1.68zm1.988 2.456a.796.796 0 0 0 .271-.65.81.81 0 0 0-.277-.658 1.18 1.18 0 0 0-.78-.231h-1.202v1.761h1.218c.274.016.546-.062.77-.222zm6.709 1.264l-1.492-2.503h-.561v2.503h-1.284v-6.405h2.43a2.39 2.39 0 0 1 1.693.545 2.047 2.047 0 0 1 .18 2.65c-.3.345-.709.575-1.159.65l1.59 2.56h-1.397zm-2.053-3.376h1.05c.73 0 1.094-.323 1.094-.97a.956.956 0 0 0-.268-.72 1.135 1.135 0 0 0-.826-.26h-1.063l.013 1.95zm9.071 2.087h-2.558l-.452 1.29h-1.346l2.35-6.334h1.455l2.34 6.333h-1.346l-.442-1.289zm-.342-.97l-.935-2.703-.935 2.703h1.87zm9.128 2.259H80.5l-2.857-4.355v4.355h-1.272v-6.405h1.272l2.857 4.38v-4.38h1.275v6.405zm7.274-1.533a2.757 2.757 0 0 1-1.153 1.13c-.555.281-1.17.42-1.792.403h-2.27v-6.405h2.27a3.816 3.816 0 0 1 1.792.395c.487.246.89.636 1.153 1.117a3.735 3.735 0 0 1 0 3.36zm-1.459-.153a2.352 2.352 0 0 0 0-3.057 2.21 2.21 0 0 0-1.595-.545h-.885v4.146h.885a2.21 2.21 0 0 0 1.595-.544zM73.789 22S90.24 28.236 89.89 37.26v15.263s-16.439-6.24-16.096-15.263L73.789 22zm30.759 26.95A22.487 22.487 0 0 1 115 45.082v-4.778a21.46 21.46 0 0 0-10.452 8.646z"
      ></path>
    <path d="M102.681 50.389A22.383 22.383 0 0 1 115 39.303V25.536s-23.43 8.883-22.934 21.733V69s1.044-.397 2.687-1.142c0-.695 0-1.395.075-2.1a22.605 22.605 0 0 1 7.853-15.369z" ></path>
    <path d="M100.453 58.462c.123-1.507.397-2.998.819-4.45a21.04 21.04 0 0 0-4.961 13.126 67.978 67.978 0 0 0 4.506-2.384 22.554 22.554 0 0 1-.364-6.292zm.931.078a21.594 21.594 0 0 0 .29 5.698c6.401-3.846 13.594-9.788 13.317-16.968v-.626a20.968 20.968 0 0 0-12.179 5.713 21.513 21.513 0 0 0-1.428 6.183z"
      ></path>
  </symbol>
  <symbol viewBox="0 0 170 90" xmlns="http://www.w3.org/2000/svg" id="Client6">
    <path d="M85.74 43.353a3.259 3.259 0 0 1-.57-2.057v-2.983c0-.914.189-1.609.567-2.084.378-.475 1.028-.712 1.949-.71.865 0 1.48.202 1.843.607.396.516.589 1.147.544 1.784v.7h-1.547v-.71a3.961 3.961 0 0 0-.045-.694.69.69 0 0 0-.221-.413.836.836 0 0 0-.561-.16.886.886 0 0 0-.59.17.81.81 0 0 0-.256.455c-.045.243-.065.49-.061.737v3.62a1.99 1.99 0 0 0 .198 1.016.734.734 0 0 0 .31.246.78.78 0 0 0 .399.058.788.788 0 0 0 .548-.164.748.748 0 0 0 .23-.44c.037-.24.053-.483.048-.725v-.735h1.548v.67a2.914 2.914 0 0 1-.535 1.876c-.355.443-.961.664-1.852.664-.891 0-1.564-.236-1.946-.728zm6.446.031c-.391-.465-.587-1.141-.587-2.036V38.21c0-.886.196-1.556.587-2.011.39-.455 1.044-.682 1.961-.68.91 0 1.56.227 1.952.68.39.455.59 1.125.59 2.011v3.138c0 .886-.2 1.565-.597 2.033-.397.467-1.044.7-1.945.7-.9 0-1.567-.236-1.961-.697zm2.682-.753c.14-.29.204-.61.186-.928V37.86a1.843 1.843 0 0 0-.183-.91.738.738 0 0 0-.316-.25.784.784 0 0 0-.408-.053.794.794 0 0 0-.41.054.75.75 0 0 0-.317.25 1.795 1.795 0 0 0-.186.91v3.859c-.02.32.044.638.186.928a.96.96 0 0 0 .326.23 1.008 1.008 0 0 0 .796 0 .96.96 0 0 0 .326-.23v-.018zm3.682-7.021h1.667l1.253 5.79 1.282-5.79h1.622l.163 8.356h-1.198l-.128-5.807-1.238 5.807h-.961l-1.282-5.828-.119 5.828H98.4l.15-8.355zm7.856 0h2.596c1.495 0 2.243.791 2.243 2.373 0 1.515-.787 2.271-2.362 2.27h-.884v3.713h-1.603l.01-8.355zm2.218 3.571a1.136 1.136 0 0 0 .881-.264 1.45 1.45 0 0 0 .231-.943 2.892 2.892 0 0 0-.077-.758.635.635 0 0 0-.118-.23.668.668 0 0 0-.203-.168 1.526 1.526 0 0 0-.714-.133h-.622v2.496h.622zm4.932-3.571h1.721l1.766 8.356h-1.494l-.349-1.927h-1.535l-.359 1.927h-1.516l1.766-8.355zm1.471 5.462l-.599-3.508-.6 3.508h1.199zm3.442-5.462h1.122l2.147 4.767V35.61h1.33v8.355h-1.067l-2.16-4.976v4.976h-1.375l.003-8.355zm7.715 5.17l-1.786-5.158h1.504l1.089 3.313 1.023-3.313h1.471l-1.763 5.158v3.186h-1.538V40.78zm-37.969 6.839v.437h-1.308v3.395h-.548v-3.395h-1.314v-.437h3.17zm4.099 3.832h-.423a.176.176 0 0 1-.119-.036.196.196 0 0 1-.07-.088l-.379-.91H89.51l-.379.91a.257.257 0 0 1-.057.103.183.183 0 0 1-.119.036h-.423l1.603-3.831h.557l1.622 3.816zm-2.654-1.423h1.513l-.641-1.56a2.964 2.964 0 0 1-.119-.36l-.06.203-.058.16-.635 1.557zm5.417 1.047c.1.005.2.005.3 0 .088-.009.173-.024.257-.046a1.82 1.82 0 0 0 .231-.07c.07-.027.141-.06.215-.094v-.861h-.641a.12.12 0 0 1-.087-.03.087.087 0 0 1-.032-.07v-.295h1.244v1.469a2.355 2.355 0 0 1-.676.312 2.655 2.655 0 0 1-.401.08 4.459 4.459 0 0 1-.468.024 2.252 2.252 0 0 1-.808-.143 1.937 1.937 0 0 1-.64-.4 1.849 1.849 0 0 1-.414-.607 2.076 2.076 0 0 1-.147-.795 2.155 2.155 0 0 1 .144-.801c.092-.228.233-.434.413-.607.183-.173.401-.308.641-.398.275-.098.566-.146.859-.143.15 0 .298.011.446.034.13.02.258.053.38.097.113.04.22.09.321.152.099.06.192.127.28.2l-.155.237a.14.14 0 0 1-.052.052.15.15 0 0 1-.073.02.196.196 0 0 1-.099-.03 1.923 1.923 0 0 1-.157-.09 1.372 1.372 0 0 0-.215-.104 1.873 1.873 0 0 0-.295-.085 2.255 2.255 0 0 0-.407-.033 1.743 1.743 0 0 0-.618.106 1.337 1.337 0 0 0-.471.303c-.133.138-.235.3-.298.477a1.954 1.954 0 0 0 0 1.277c.07.18.179.345.32.483.132.131.291.234.468.303.204.066.42.092.635.076zm5.108-.061h1.75v.437H99.65v-3.832h.548l-.013 3.395zm3.571.436h-.548v-3.83h.548v3.832zm2.038-3.813a.27.27 0 0 1 .083.07l2.343 2.889a1.036 1.036 0 0 1 0-.137v-2.855h.478v3.847h-.276a.242.242 0 0 1-.119-.021.318.318 0 0 1-.086-.073l-2.34-2.885v2.979h-.458V47.62h.285a.23.23 0 0 1 .09.018zm6.938-.018v.422h-1.942v1.265h1.574v.406h-1.574v1.308h1.942v.422h-2.506v-3.823h2.506zM55.303 23.954l24.335 6.541v22.922L55.303 46.88V23.954zM53.743 22v25.992l27.453 7.382v-25.99L53.743 22z"
      ></path>
    <path d="M68.457 67.44L41 60.052v-25.99l27.457 7.385V67.44z" ></path>
    <path d="M54.198 23.66l24.018 6.459L68 39.79l-24.02-6.462 10.217-9.67zM53.743 22L41 34.063l27.457 7.385 12.739-12.063L53.743 22zm16.258 43.978l11.195-10.6-11.195-3.013v13.613z" ></path>
  </symbol>
  <symbol viewBox="0 0 80 70" xmlns="http://www.w3.org/2000/svg" id="clock1">
<path d="M68.4614 33.4715C68.4576 14.9819 53.4656 -0.00373771 34.9754 6.99302e-07C16.4858 0.00373911 1.50017 14.9963 1.50391 33.4859C1.50711 48.0502 10.9252 60.9413 24.7995 65.3713C24.9319 65.413 25.0697 65.4343 25.2081 65.4338C25.4719 65.4333 25.7304 65.3628 25.9573 65.2287C26.2527 65.0541 26.4732 64.7764 26.5768 64.449L35.0315 37.6521C37.3429 37.6404 39.2068 35.7568 39.1945 33.4459C39.1827 31.1345 37.2997 29.2706 34.9883 29.2824C34.3666 29.285 33.753 29.4282 33.1944 29.7011L22.0251 18.5302C21.4707 17.9951 20.5879 18.0106 20.0528 18.5644C19.5305 19.1054 19.5305 19.962 20.0528 20.503L31.2162 31.6792C30.3596 33.4277 30.8493 35.5383 32.3895 36.7303L24.3338 62.2647C8.41354 56.4002 0.261689 38.7405 6.12618 22.8203C11.9907 6.90002 29.6503 -1.25183 45.5706 4.61266C61.4909 10.4771 69.6427 28.1374 63.7782 44.0571C60.913 51.8351 55.0261 58.1252 47.4548 61.4989L46.5842 57.3989C46.4251 56.6454 45.6844 56.1636 44.9308 56.3233C44.6931 56.3741 44.4726 56.4857 44.291 56.6475L35.8978 64.1409C35.322 64.653 35.2708 65.5347 35.7835 66.1105C35.9501 66.2974 36.1637 66.4362 36.403 66.5126L47.1188 69.9327C47.8521 70.1682 48.6377 69.765 48.8732 69.0312C48.948 68.7994 48.9603 68.5527 48.9101 68.3145L48.0545 64.2915C60.4452 59.0678 68.4902 46.918 68.4614 33.4715ZM34.9829 32.0766C35.753 32.0766 36.3779 32.7014 36.3779 33.4715C36.3779 34.2422 35.753 34.8665 34.9829 34.8665C34.2123 34.8665 33.588 34.2422 33.588 33.4715C33.588 32.7014 34.2123 32.0766 34.9829 32.0766ZM39.5774 64.5916L44.3551 60.3298L45.6737 66.543L39.5774 64.5916Z" fill="#212121" style="fill: var(--icon-black-color, #212121)"></path>
<path d="M33.5879 6.9673V9.75722C33.5879 10.5279 34.2122 11.1522 34.9828 11.1522C35.753 11.1522 36.3778 10.5279 36.3778 9.75722V6.9673C36.3778 6.19719 35.753 5.57234 34.9828 5.57234C34.2122 5.57234 33.5879 6.19719 33.5879 6.9673Z" fill="#2196F3" style="fill: var(--main-color, #2196F3)"></path>
<path d="M8.4787 32.0765C7.70805 32.0765 7.08374 32.7014 7.08374 33.4715C7.08374 34.2422 7.70805 34.8665 8.4787 34.8665H11.2686C12.0393 34.8665 12.6636 34.2422 12.6636 33.4715C12.6636 32.7014 12.0393 32.0765 11.2686 32.0765H8.4787Z" fill="#2196F3" style="fill: var(--main-color, #2196F3)"></path>
<path d="M61.4866 34.8665C62.2573 34.8665 62.8816 34.2422 62.8816 33.4715C62.8816 32.7014 62.2573 32.0765 61.4866 32.0765H58.6967C57.9266 32.0765 57.3018 32.7014 57.3018 33.4715C57.3018 34.2422 57.9266 34.8665 58.6967 34.8665H61.4866Z" fill="#2196F3" style="fill: var(--main-color, #2196F3)"></path>
  </symbol>
  <symbol viewBox="0 0 80 70" xmlns="http://www.w3.org/2000/svg" id="diagram1">
<path d="M32.6497 32.7351H34.9818V43.2296H32.6497V32.7351Z" fill="#2196F3" style="fill: var(--main-color, #2196F3)"></path>
<path d="M41.978 37.3993H44.3101V43.2296H41.978V37.3993Z" fill="#2196F3" style="fill: var(--main-color, #2196F3)"></path>
<path d="M23.321 40.8975H25.6532V43.2296H23.321V40.8975Z" fill="#2196F3" style="fill: var(--main-color, #2196F3)"></path>
<path d="M16.3247 39.7314H18.6568V43.2295H16.3247V39.7314Z" fill="#2196F3" style="fill: var(--main-color, #2196F3)"></path>
<path d="M3.49817 61.8865H59.4689C61.4007 61.8865 62.967 60.3202 62.967 58.3883V53.7241C62.967 51.7922 61.4007 50.2259 59.4689 50.2259H58.3028V21.1468L64.9262 14.8724C66.4635 15.6303 68.3242 15.1702 69.3302 13.7815C70.3369 12.3934 70.1957 10.4821 68.9966 9.25681C67.7975 8.03154 65.8901 7.84878 64.4798 8.8241C63.0701 9.79999 62.569 11.6498 63.2933 13.2036L58.3028 17.9345V15.2442C58.3028 13.3124 56.7365 11.7461 54.8046 11.7461H8.16239C6.23054 11.7461 4.66422 13.3124 4.66422 15.2442V50.2259H3.49817C1.56632 50.2259 0 51.7922 0 53.7241V58.3883C0 60.3202 1.56632 61.8865 3.49817 61.8865ZM66.4652 10.58C67.1091 10.58 67.6312 11.1021 67.6312 11.7461C67.6312 12.39 67.1091 12.9121 66.4652 12.9121C65.8212 12.9121 65.2991 12.39 65.2991 11.7461C65.2991 11.1021 65.8212 10.58 66.4652 10.58ZM6.99634 15.2442C6.99634 14.6003 7.51844 14.0782 8.16239 14.0782H54.8046C55.4486 14.0782 55.9707 14.6003 55.9707 15.2442V20.1413L53.6386 22.3573V17.5764C53.6386 16.9324 53.1165 16.4103 52.4725 16.4103H10.4945C9.85055 16.4103 9.32845 16.9324 9.32845 17.5764V46.7278C9.32845 47.3717 9.85055 47.8938 10.4945 47.8938H52.4725C53.1165 47.8938 53.6386 47.3717 53.6386 46.7278V25.5651L55.9707 23.3554V50.2259H6.99634V15.2442ZM17.4908 30.403C15.9131 30.3984 14.5279 31.4495 14.1083 32.9702C13.6886 34.491 14.3383 36.104 15.6951 36.9091C17.0513 37.7142 18.7793 37.512 19.9129 36.4149L23.9662 38.4486C24.4371 38.6844 25.0081 38.5739 25.3583 38.1805L33.9745 28.4871L42.4443 34.8338C42.8987 35.1742 43.5329 35.1378 43.9452 34.7478L51.3065 27.7748V45.5617H11.6606V18.7424H51.3065V24.5619L43.0564 32.3747L34.5154 25.9716C34.0303 25.6084 33.3476 25.6767 32.9445 26.1293L24.2099 35.9571L20.9446 34.3242C20.9685 34.1841 20.9833 34.0429 20.989 33.9011C20.989 31.9693 19.4227 30.403 17.4908 30.403ZM18.6569 33.9011C18.6569 34.5451 18.1348 35.0672 17.4908 35.0672C16.8469 35.0672 16.3248 34.5451 16.3248 33.9011C16.3248 33.2572 16.8469 32.7351 17.4908 32.7351C18.1348 32.7351 18.6569 33.2572 18.6569 33.9011ZM25.6532 52.558H37.3138V53.7241C37.3138 54.368 36.7917 54.8902 36.1477 54.8902H26.8193C26.1753 54.8902 25.6532 54.368 25.6532 53.7241V52.558ZM2.33211 53.7241C2.33211 53.0801 2.85422 52.558 3.49817 52.558H23.3211V53.7241C23.3211 55.6559 24.8874 57.2223 26.8193 57.2223H36.1477C38.0796 57.2223 39.6459 55.6559 39.6459 53.7241V52.558H59.4689C60.1128 52.558 60.6349 53.0801 60.6349 53.7241V58.3883C60.6349 59.0323 60.1128 59.5544 59.4689 59.5544H3.49817C2.85422 59.5544 2.33211 59.0323 2.33211 58.3883V53.7241Z" fill="#212121" style="fill: var(--icon-black-color, #212121)"/>
</symbol>
  <symbol viewBox="0 0 16 12" xmlns="http://www.w3.org/2000/svg" id="envelope">
    <path d="M14.5 0h-13C.673 0 0 .628 0 1.4v8.402c0 .772.673 1.4 1.5 1.4h13c.827 0 1.5-.628 1.5-1.4V1.4c0-.772-.673-1.4-1.5-1.4zm0 .933a.53.53 0 0 1 .192.037L8 6.384 1.308.97A.529.529 0 0 1 1.5.933h13zm0 9.335h-13c-.276 0-.5-.209-.5-.466V1.956l6.672 5.398A.52.52 0 0 0 8 7.468a.52.52 0 0 0 .328-.114L15 1.956v7.846c0 .257-.224.466-.5.466z"></path>
  </symbol>
  <symbol viewBox="0 0 44 44" xmlns="http://www.w3.org/2000/svg" id="facebook">
    <path d="M25.33 15.32h1.827v-3.18a23.588 23.588 0 0 0-2.66-.14c-2.633 0-4.436 1.656-4.436 4.7v2.8h-2.905v3.555h2.905V32h3.561v-8.944h2.788l.442-3.555h-3.23v-2.45c0-1.027.277-1.73 1.709-1.73z" ></path>
  </symbol>
  <symbol viewBox="0 0 44 44" xmlns="http://www.w3.org/2000/svg" id="instagram">
    <path d="M31.98 17.88c-.046-1.063-.218-1.793-.464-2.426a4.881 4.881 0 0 0-1.157-1.774 4.922 4.922 0 0 0-1.77-1.153c-.637-.246-1.363-.418-2.426-.464-1.07-.051-1.41-.063-4.126-.063-2.715 0-3.055.012-4.122.059-1.063.046-1.793.219-2.426.465a4.879 4.879 0 0 0-1.774 1.156 4.923 4.923 0 0 0-1.152 1.77c-.247.637-.418 1.363-.465 2.426-.051 1.07-.063 1.41-.063 4.126 0 2.715.012 3.055.059 4.122.047 1.063.219 1.793.465 2.426a4.932 4.932 0 0 0 1.156 1.774 4.92 4.92 0 0 0 1.77 1.152c.637.247 1.364.419 2.426.465 1.067.047 1.407.059 4.122.059 2.716 0 3.055-.012 4.122-.059 1.063-.046 1.793-.218 2.426-.464a5.116 5.116 0 0 0 2.927-2.927c.246-.637.418-1.364.465-2.426.047-1.067.058-1.407.058-4.122s-.004-3.055-.05-4.122zm-1.8 8.166c-.044.977-.208 1.504-.344 1.855a3.318 3.318 0 0 1-1.9 1.9c-.35.136-.882.3-1.855.343-1.055.047-1.371.059-4.04.059-2.668 0-2.989-.012-4.04-.059-.977-.043-1.504-.207-1.856-.344a3.076 3.076 0 0 1-1.148-.746 3.109 3.109 0 0 1-.747-1.148c-.136-.352-.3-.883-.343-1.856-.047-1.055-.059-1.372-.059-4.04 0-2.669.012-2.99.059-4.04.043-.977.207-1.504.343-1.856a3.04 3.04 0 0 1 .75-1.149 3.104 3.104 0 0 1 1.15-.746c.35-.136.882-.3 1.855-.344 1.055-.046 1.372-.058 4.04-.058 2.672 0 2.989.011 4.04.058.977.043 1.504.207 1.856.344.433.16.828.414 1.148.746.332.325.586.715.747 1.15.136.35.3.882.343 1.855.047 1.055.059 1.371.059 4.04 0 2.668-.012 2.98-.059 4.036z"
      ></path>
    <path d="M22.037 16.864a5.139 5.139 0 0 0-5.138 5.138 5.139 5.139 0 1 0 5.138-5.138zm0 8.47a3.333 3.333 0 1 1 .001-6.666 3.333 3.333 0 0 1 0 6.667zm6.541-8.673a1.2 1.2 0 1 1-2.4 0 1.2 1.2 0 0 1 2.4 0z" ></path>
  </symbol>
  <symbol viewBox="0 0 44 44" xmlns="http://www.w3.org/2000/svg" id="linkedin">
    <path d="M31.995 32H32v-7.336c0-3.588-.772-6.352-4.967-6.352-2.017 0-3.37 1.106-3.923 2.156h-.058v-1.821h-3.978v13.352h4.142v-6.611c0-1.741.33-3.425 2.486-3.425 2.124 0 2.156 1.987 2.156 3.536V32h4.137zM12.33 18.648h4.147V32H12.33V18.648zM14.402 12A2.402 2.402 0 0 0 12 14.402c0 1.325 1.076 2.424 2.402 2.424 1.325 0 2.401-1.099 2.401-2.424A2.403 2.403 0 0 0 14.402 12z"></path>
  </symbol>
  <symbol viewBox="0 0 10 15" xmlns="http://www.w3.org/2000/svg" id="smartphone">
    <path d="M8.5 0h-7C.673 0 0 .628 0 1.4v12.136c0 .772.673 1.4 1.5 1.4h7c.827 0 1.5-.628 1.5-1.4V1.4C10 .628 9.327 0 8.5 0zm-7 .933h7c.276 0 .5.21.5.467v9.802H1V1.4c0-.257.224-.467.5-.467zm7 13.07h-7c-.276 0-.5-.21-.5-.467v-1.4h8v1.4c0 .257-.224.466-.5.466z"></path>
    <path d="M2.354 12.739a.445.445 0 0 1 0 .66.525.525 0 0 1-.708 0 .445.445 0 0 1 0-.66.525.525 0 0 1 .708 0z"></path>
  </symbol>
  <symbol viewBox="0 0 44 44" xmlns="http://www.w3.org/2000/svg" id="twitter">
    <path d="M32 15.799a8.55 8.55 0 0 1-2.363.647 4.076 4.076 0 0 0 1.804-2.266 8.191 8.191 0 0 1-2.6.992 4.099 4.099 0 0 0-7.093 2.804c0 .325.028.638.096.935-3.409-.166-6.425-1.8-8.452-4.289a4.128 4.128 0 0 0-.56 2.073c0 1.42.73 2.679 1.82 3.407a4.048 4.048 0 0 1-1.852-.505v.045a4.119 4.119 0 0 0 3.285 4.03 4.09 4.09 0 0 1-1.075.134 3.62 3.62 0 0 1-.776-.07c.531 1.624 2.039 2.818 3.831 2.857a8.238 8.238 0 0 1-5.084 1.748 7.67 7.67 0 0 1-.981-.056 11.543 11.543 0 0 0 6.29 1.84c7.545 0 11.67-6.25 11.67-11.668 0-.18-.006-.356-.015-.53A8.179 8.179 0 0 0 32 15.8z"
      ></path>
  </symbol>
  <symbol viewBox="0 0 24 24" xmlns="http://www.w3.org/2000/svg" id="icon-send">
<path d="M24 0L0 13.5L7.66994 16.3407L19.5 5.25002L10.5017 17.3896L10.509 17.3923L10.5 17.3896V24.0001L14.8013 18.982L20.2501 21.0001L24 0Z"></path>
</symbol>
<symbol viewBox="0 0 13 10" xmlns="http://www.w3.org/2000/svg" id="checkbox-icon">
<path d="M1.95703 4.75166L1.88825 4.68604L1.81923 4.75141L0.93123 5.59258L0.854858 5.66492L0.930974 5.73753L4.42671 9.07236L4.49574 9.1382L4.56476 9.07236L12.069 1.91352L12.1449 1.84116L12.069 1.76881L11.1873 0.927644L11.1183 0.861826L11.0493 0.927611L4.49577 7.17353L1.95703 4.75166Z" fill="white" stroke="white" stroke-width="0.2"/>
</symbol>
<symbol viewBox="0 0 16 12" xmlns="http://www.w3.org/2000/svg" id="email-icon">
<path d="M14 0H2C1.175 0 0.5075 0.675 0.5075 1.5L0.5 10.5C0.5 11.325 1.175 12 2 12H14C14.825 12 15.5 11.325 15.5 10.5V1.5C15.5 0.675 14.825 0 14 0ZM13.7 3.1875L8.3975 6.5025C8.1575 6.6525 7.8425 6.6525 7.6025 6.5025L2.3 3.1875C2.1125 3.0675 2 2.865 2 2.6475C2 2.145 2.5475 1.845 2.975 2.1075L8 5.25L13.025 2.1075C13.4525 1.845 14 2.145 14 2.6475C14 2.865 13.8875 3.0675 13.7 3.1875Z"/>
</symbol>
<symbol viewBox="0 0 14 14" xmlns="http://www.w3.org/2000/svg" id="tel-icon">
<path d="M11.9958 9.12262L10.1576 8.91275C9.7162 8.8621 9.28199 9.01407 8.97081 9.32525L7.63924 10.6568C5.59123 9.61472 3.91229 7.94302 2.8702 5.88776L4.209 4.54895C4.52018 4.23776 4.67216 3.80355 4.6215 3.36211L4.41163 1.53843C4.32479 0.807506 3.70966 0.257507 2.97151 0.257507H1.71955C0.90179 0.257507 0.221532 0.937769 0.27219 1.75553C0.655739 7.93578 5.59847 12.8713 11.7714 13.2548C12.5892 13.3055 13.2695 12.6252 13.2695 11.8075V10.5555C13.2767 9.82459 12.7267 9.20946 11.9958 9.12262V9.12262Z"/>
</symbol>
<symbol viewBox="0 0 12 12" xmlns="http://www.w3.org/2000/svg" id="name-icon">
<path d="M6 6C7.6575 6 9 4.6575 9 3C9 1.3425 7.6575 0 6 0C4.3425 0 3 1.3425 3 3C3 4.6575 4.3425 6 6 6ZM6 7.5C3.9975 7.5 0 8.505 0 10.5V11.25C0 11.6625 0.3375 12 0.75 12H11.25C11.6625 12 12 11.6625 12 11.25V10.5C12 8.505 8.0025 7.5 6 7.5Z"/>
</symbol>
<symbol viewBox="0 0 11 11" xmlns="http://www.w3.org/2000/svg" id="close-icon">
<path d="M11 1.10786L9.89214 0L5.5 4.39214L1.10786 0L0 1.10786L4.39214 5.5L0 9.89214L1.10786 11L5.5 6.60786L9.89214 11L11 9.89214L6.60786 5.5L11 1.10786Z"/>
</symbol>
</svg>